<svg xmlns="http://www.w3.org/2000/svg" version="1.1" xmlns:xlink="http://www.w3.org/1999/xlink" viewBox="0 0 11.139982847835334 5.908023405720263"><g transform="matrix(0.8061499295586153,0,0,0.8061499295586153,1.6523786065684596,2.091728288371588)"><g transform="matrix(1,0,0,1,0,0)" clip-path="url(#SvgjsClipPath134669)"><g clip-path="url(#SvgjsClipPath134667578b3cbf-64e1-47a0-87a9-c04871a0324d)"><path d=" M 7.114322205161572 1.869197787295311 C 7.083595507168985 1.9188558586719986 7.0528703418329215 1.9685139300486862 7.022146709153381 2.0181720014253743 C 7.030858328835637 1.9770753493915931 7.039573013830941 1.9359802300143363 7.048290764139293 1.894886643293603 C 6.977613159114624 2.018459623006395 6.870058264622948 2.1168345705990066 6.740686599778143 2.1762364013991147 C 6.836252072634402 2.0929113624467384 6.897489513561838 1.9770820741812085 6.912535712528485 1.8511875404821176 C 6.8723709624112255 1.9908922498141246 6.772131704887873 2.105484620496163 6.6390116986343735 2.1638770591898058 C 6.745840944564188 2.0839538818640015 6.820342446424016 1.9682568750873317 6.8488998136531745 1.8379315942062853 C 6.795577987000504 1.9723659257072823 6.690606411869686 2.0798249553753974 6.557457512337309 2.1362800458191686 C 6.6565936757991455 2.068500136638407 6.732671525584806 1.9720669503017656 6.775516219285402 1.859877702973038 C 6.698949056985807 1.9436046001683907 6.60616905441219 2.0109022092243767 6.50280604600552 2.0576869519264167 C 6.59050410557723 1.990723874139003 6.64181978127278 1.886585139661031 6.641490004233638 1.7762452344294664 C 6.568433567127476 1.9028233721472154 6.4433276345522135 1.990792291784294 6.299497625444131 2.0167190430406494 C 6.407162964270045 1.9700277752253998 6.492360608018123 1.8831689374399465 6.536964361955281 1.7746221511705804 C 6.4857935585894335 1.8780764665386802 6.371106403557143 1.9465862131602214 6.255775532784787 1.942677939024093 C 6.368315184681438 1.9089180339363794 6.458015015950983 1.8235237809046914 6.497265492671362 1.7127794604283166 C 6.403191569090962 1.807081245523381 6.280734183916125 1.8678543578651623 6.148739399120165 1.885745879784635 C 6.262328566999373 1.8342675277675653 6.3594764768038194 1.7523909237630764 6.42945003945518 1.649161953431293 C 6.362174751030468 1.6748250898027521 6.303820801400031 1.7195099710151305 6.261504602871391 1.7777671623577707 C 6.285158943413386 1.7025018810051646 6.3303099802728084 1.635798216462578 6.391397243278006 1.5858709022738755 C 6.3261060753568055 1.6390142345860754 6.214251269580816 1.666569866230565 6.134186825425052 1.686658395290264 C 6.044779307099154 1.7090918888316402 5.944552766370538 1.7258193021342692 5.852938222650121 1.7185820980280737 C 6.029746838358287 1.6797499781488843 6.193074073657183 1.5946669831113125 6.326225622565675 1.4720297736428187 C 6.170981575665909 1.4960353452026212 6.017637161054996 1.5310295239878267 5.8673482592885104 1.576748530643194 C 5.972470699945368 1.4961955861912362 6.087268042898353 1.4291256888444477 6.209060161934126 1.3771046918306218 C 6.07048877727611 1.4374562038404872 5.922021435652112 1.4718745822731498 5.771029992696018 1.4786508498263773 C 5.915867581326679 1.4435332917375656 6.050163697601436 1.3741729822072855 6.1626390611360655 1.2763953642969565 L 5.701798364851686 1.3122595269578983 C 5.834983221357972 1.2750404868565561 5.963968963096358 1.2241685300375278 6.086703593655882 1.160452963571534 C 5.95537054632783 1.1951532988680929 5.8156852922062905 1.1773246478609036 5.697278560762492 1.1107489124991279 C 5.8610536389445524 1.1724720560325221 6.05619606554622 1.142143848736167 6.193514426811477 1.033622570899817 C 6.045308171092004 1.0395135821825412 5.89703781843537 1.0236757711230267 5.753419769235582 0.9866129299965518 C 5.8937492574268555 1.006216206214162 6.036762292240208 0.9858162814853979 6.16601397080185 0.9277589194760338 C 6.149445428879226 0.7987492461521657 6.094317261147416 0.6777461231068722 6.007843817527956 0.5805846289789787 C 5.989369175787999 0.5599213537227903 5.970177250794823 0.5254089941159925 5.9924865991577585 0.5089482630485347 C 6.0082990165155765 0.49729241018372883 6.0303094968563355 0.5082815574606072 6.046544927414769 0.5193442722506361 C 6.122747077130126 0.5712553487175625 6.199197517202365 0.6278563541478426 6.2472141134418795 0.7065597993103208 C 6.281864412135835 0.7633493214930493 6.299741317831442 0.8284933543879487 6.3252324611381425 0.8899452177166003 C 6.440025369470585 1.1666740164023368 6.71353099148641 1.3595864277616254 7.006959615657344 1.420058923571458 C 7.300388239828278 1.480531419381291 7.609335011304427 1.4204865347416464 7.88252797138936 1.297509240571193 C 7.984262646137562 1.2517134636349145 8.087275556426759 1.196114815571312 8.198836092150145 1.1975677739560369 C 8.281475399266183 1.198639100866293 8.360348969302823 1.2313398604617567 8.433884296666468 1.2690662007993239 C 8.546534551178398 1.3268534823791582 8.660637764075055 1.4087249285766865 8.692561466812863 1.5312286318812318 C 8.70162866280868 1.5660168696623447 8.696616875975293 1.613329976557356 8.662159692003359 1.6235880466722992 C 8.642425206600697 1.504427067246536 8.556029358344402 1.3985772097314682 8.443236566775742 1.3553746876337502 C 8.450470234119924 1.3680307452498757 8.452293701692156 1.383069379627412 8.44829433330485 1.3970874675901679 C 8.365475705375507 1.3385415210309675 8.243224890397418 1.3439625271562563 8.165900836106513 1.4096077387344939 C 8.216448148576802 1.4719507544376444 8.259446473421686 1.5400520137262488 8.294000268380081 1.6124931460952663 C 8.244827457385345 1.542288002102234 8.180773151050913 1.4837944887343846 8.106403109845928 1.4411819957848375 C 8.173064921335415 1.5131404601701424 8.22451668102402 1.5978137922315478 8.25767630876195 1.6901298623170602 C 8.210673010757986 1.5975429390923432 8.130963583402007 1.525708434810674 8.034003480966547 1.488554876284283 C 8.07444133137121 1.5512908139904384 8.12195927115642 1.6091685903229789 8.175620943781546 1.6610477047746945 L 7.968169752635861 1.5295457750179104 C 7.996944671753131 1.6164423111065531 8.010511484513023 1.707651983958478 8.008273243242108 1.7991615147758933 C 7.994730997164182 1.7231002772445554 7.959066221664585 1.6527191213965415 7.9057385217883915 1.5968186678246057 C 7.9688690072338515 1.6731864710887918 7.99640918746994 1.7728657313091851 7.981439492820408 1.8708116746150534 C 7.980923142976554 1.7899250806537794 7.938070622650034 1.7152206157370218 7.868508762164587 1.6739404114543435 C 7.902516254705778 1.732984885189389 7.924612757857755 1.7981262200382706 7.933547041759336 1.8656757426032233 C 7.908603762467756 1.8155615153282554 7.874063397643644 1.7708324458735296 7.8318859345242835 1.7340266778201379 C 7.867714847761956 1.8169109021034902 7.88448499780039 1.906779611130779 7.880960063765339 1.9970075474858469 C 7.873943953531482 1.9038477168623626 7.837233621969144 1.8153941737687043 7.7762229148866755 1.7446433895616917 C 7.811426441290131 1.8321958908259246 7.818922731881351 1.9284408154771961 7.797700030757092 2.0203882227590375 C 7.794808045751969 1.9388448506447684 7.7748379471696385 1.858815647831233 7.739080516684741 1.7854733593602998 C 7.751226905918799 1.8503011416201485 7.7520529556284075 1.916742917698096 7.741522038527428 1.9818526397768133 C 7.730810119550031 1.920056324855853 7.708834816481251 1.8607541772127982 7.676690667563421 1.8068998975654278 C 7.682243320461604 1.8917570723718877 7.680384830329653 1.9769368444295536 7.671136320320546 2.0614710808841026 C 7.642563281882973 1.9770056791761599 7.608436272330552 1.8945220887105485 7.568978632371726 1.8145601148722377 C 7.588043049467137 1.934049012588488 7.562922839931382 2.0563907098108456 7.498317035990527 2.158699745451829 C 7.540884768070827 2.0704632920727737 7.547272257182453 1.9690819097378736 7.516115776203414 1.8762004949533382 C 7.513089317582777 2.001877310158042 7.456545129439813 2.1202821784533907 7.36070440467267 2.201635585314375 C 7.407130913373557 2.1206837701224956 7.433807265180997 2.0299221066415907 7.438566421403487 1.9367235684284627 C 7.428804847234138 2.007958213771627 7.40043708704107 2.0753607859304832 7.356322539670631 2.132137275234873 C 7.371417338500175 2.0597006018757655 7.364166995704645 1.9843881070080767 7.33553052126643 1.9161614485028564 C 7.321425730602813 2.020628795753576 7.280032832058128 2.119532448318415 7.215523515439436 2.2029046249162243 C 7.247237989098499 2.0933643515017986 7.261073228995119 1.9794250725147675 7.256496022294774 1.865478029911631 C 7.223947105261301 1.9842820792564355 7.171062496142134 2.0965492828541086 7.1001880466975065 2.197299700008061 C 7.127487730350826 2.119106332441511 7.142560893762356 2.0371693667703585 7.144875712966956 1.9543797715846187 C 7.110267747376929 2.029928434590799 7.056163850163369 2.094897231054131 6.988126332290783 2.142606851950125 C 7.055938786055429 2.065612471138487 7.0998332650076845 1.9705181527531157 7.114437154400875 1.8689632908471436 Z" fill="#595959" transform="matrix(1,0,0,1,0,0)" fill-rule="nonzero"></path></g><g clip-path="url(#SvgjsClipPath134667578b3cbf-64e1-47a0-87a9-c04871a0324d)"><path d=" M 8.67318102506724 0.21738641452379825 C 8.717934226138443 0.16323356637249553 8.752503905477802 0.10141909761553403 8.775214567837619 0.03493898191018974 C 8.749241914374078 0.1818761161990332 8.656539437214036 0.3084355933545664 8.524280378450328 0.37751990080490083 C 8.51705478883748 0.3553998826725353 8.522293269167879 0.3311029606572091 8.53799152371378 0.3139253836557372 C 8.525742532774197 0.3527184529339882 8.466263198391896 0.35538987325527116 8.436735037801055 0.3274204243493093 C 8.407206877210214 0.29945097544334676 8.399951281225732 0.2558806157798754 8.394364748195855 0.21558860842117955 C 8.38294032646617 0.23675766033027834 8.37151130676691 0.25792671223937735 8.36007768909808 0.27909576414847703 C 8.322645618813116 0.20024978192926923 8.241776529982266 0.15019628516939654 8.158746395452615 0.12328896723454696 C 8.075716260922965 0.09638164929969739 7.987853660373229 0.08836738833584845 7.902933760349521 0.06818689988471127 C 7.666138327395872 0.011921546233180758 7.461928704798387 -0.1361790536782186 7.279449086397775 -0.2972183399649887 C 7.120359339209498 -0.43758515505642614 6.9715644458927395 -0.5913274636325658 6.85253220961499 -0.766928519553592 C 6.862068398507143 -0.7425163664397683 6.871607652712345 -0.7181042133259443 6.881149972230592 -0.6936920602121214 C 6.792703429545225 -0.8099287309901458 6.661500367810615 -0.887873511173258 6.523575074561864 -0.9359314891389191 C 6.385649781313114 -0.9839894671045806 6.239912537761679 -1.004528597182327 6.095214435333498 -1.0244056196417177 C 5.969735845715923 -1.041643407566829 5.843898614471739 -1.0586283071654847 5.717284326369901 -1.0646516473046947 C 5.611866677994594 -1.069663434138083 5.430490572291241 -1.0187777048856934 5.339124318927707 -1.051565825903023 C 5.347515613396454 -1.077470786471195 5.3681788886526425 -1.086400043379855 5.396102357862885 -1.0903405033029865 C 5.830330865457103 -1.1516034387897394 6.268634907815409 -1.1793116082686033 6.707121421903183 -1.1732189048367658 C 6.799742920959828 -1.1719314733566275 6.894631219015449 -1.1686761108997112 6.980585662192838 -1.1341361634754823 L 6.85282188169802 -1.1315567025456374 C 6.959450522576203 -1.0850126166792018 7.06109982862413 -1.0278064792223596 7.156218903900868 -0.960811102492554 C 7.124836417218953 -0.9820307837258574 7.100016137839859 -1.0116067968206854 7.084564146092135 -1.0461953974430263 C 7.203223946834559 -0.9727612254099633 7.2712692985293375 -0.841457008344771 7.367035808773194 -0.7399706239534514 C 7.64047705921501 -0.450178993713903 8.1092400570718 -0.42887200271764636 8.400291530974052 -0.1567733593908287 L 8.342816911325109 -0.27524004541123226 C 8.429744796177093 -0.1992201805632582 8.492699495116906 -0.09956999609104056 8.52401829418473 0.011581296484858727 C 8.517506722262345 -0.07747257668166485 8.487791743268494 -0.16326952563254182 8.437829354559172 -0.23727461065592603 C 8.507902410835165 -0.18663717176041994 8.546801233413571 -0.10152875498426384 8.55938127816233 -0.015992727037919208 C 8.571961322911092 0.06954330090842542 8.561151496447518 0.15661964866136246 8.549068032412524 0.24222464615128536 C 8.59740350887406 0.18149271761221475 8.62156811523931 0.10502905738943413 8.616911073446138 0.027550044808121843 C 8.61981699021559 0.05384430013338215 8.622719841671993 0.08013702280211943 8.625619627815347 0.1064282128143319 C 8.635517523647156 0.07460413275058064 8.645415419478969 0.042778520030305245 8.655313315310778 0.01095137465350593 C 8.657057990476439 0.09467607617324103 8.639015275966402 0.17763034299897051 8.60265276980363 0.25306665840186326 C 8.648671448271221 0.20644225958792717 8.682562975671464 0.14925070177496846 8.701361980573513 0.08649601472007795 C 8.69835304234856 0.13126015724768214 8.68886036386394 0.1753502336747772 8.67318102506724 0.21738641452379737 Z" fill="#595959" transform="matrix(1,0,0,1,0,0)" fill-rule="nonzero"></path></g><g clip-path="url(#SvgjsClipPath134667578b3cbf-64e1-47a0-87a9-c04871a0324d)"><path d=" M 5.976816718856671 2.848110107125701 C 5.9588846375262 2.835888704003549 5.942474484124034 2.82170396787419 5.925282675894642 2.8086043525638025 L 5.874447524307543 2.7684180985052604 L 5.825456158518784 2.7260248190521996 C 5.809183944203774 2.711812495105409 5.792534696383868 2.697977204663514 5.77712690034838 2.6827395335021866 C 5.793196804002224 2.6991910686305003 5.810747253858225 2.714065500195647 5.827814916909176 2.7295100799877114 C 5.845043508895143 2.7447753389664706 5.862033006463371 2.7603762497239805 5.879574260380229 2.775356434589281 L 5.933407288128217 2.8189681759789 L 5.960415761393649 2.8407671497193516 L 5.988376014360466 2.8613614554319606 L 6.044554006590131 2.902402931830879 C 6.063483847317707 2.9158290029808724 6.083176950994222 2.928179149251038 6.102488423196267 2.941104041717692 C 6.140867675213045 2.9674458093951963 6.181394179019909 2.9904540491330613 6.2215758351088795 3.014211757911149 C 6.24145285756827 3.026474542759448 6.262451784603209 3.0367188189656757 6.283046090315818 3.0477769357861324 C 6.303787531054729 3.058536184584415 6.324312867223759 3.0697736222181766 6.345307196289125 3.0800960639071264 L 6.409007466738443 3.109693194041547 L 6.44092197353711 3.124452676367396 L 6.47349398998456 3.137727014521517 L 6.53878515790576 3.164123957833883 C 6.560685286976794 3.1725888198157794 6.583054408944163 3.1798260239219753 6.605198230402508 3.1877023457986664 C 6.649338738292896 3.2040297357485383 6.694706904058988 3.216540810953721 6.739918738859633 3.229782963320838 C 6.762407408035872 3.2368362486441558 6.785438637621597 3.241829643599256 6.808318134211449 3.247393186781274 L 6.877112954946449 3.263674597035427 L 6.946625058934668 3.2766500671673726 C 6.9698034235466935 3.280981354504117 6.992963396280432 3.2855011585933105 7.016394649218913 3.288204764701596 C 7.063128411947863 3.294462601288973 7.109825390920237 3.301437721129569 7.156913197306224 3.304394215564311 C 7.180413419788285 3.3062334033930774 7.203909044300773 3.3084726145745997 7.227436854600265 3.3099439648376134 L 7.298103048951033 3.3122199597757116 C 7.345218443154454 3.3147074613141174 7.392361425175302 3.3123119191671493 7.439467623439578 3.3117601628185196 C 7.463050609373931 3.311792348605523 7.486537037947276 3.3094106003672707 7.510060250277196 3.307962239952117 L 7.580588505540808 3.3029044734230104 C 7.674253743690301 3.2924394946773305 7.767785640722205 3.2795605819063947 7.859524329621065 3.2582627868492824 C 7.882459001845779 3.253007307628583 7.905504025340219 3.2482116253650744 7.928323748325635 3.2425147410654716 L 7.996300130476835 3.223722839425052 L 8.030256135765432 3.2142832078939105 C 8.041502769338338 3.210903700258552 8.052583876006654 3.207018415970284 8.063752344096837 3.203404411886758 L 8.130588429794201 3.1812789823067003 C 8.152851798461418 3.1738854472350595 8.174457657479849 3.164726291847805 8.196394570307458 3.1565189161619354 C 8.218129172473901 3.1477827739752953 8.240360355354113 3.140260495755642 8.261635160563365 3.130512800263181 C 8.304258338495023 3.111233513848139 8.347681563132195 3.093729043687857 8.388966731918423 3.07189328619083 C 8.55551136600463 2.9898256837505266 8.711659044240843 2.888161982211431 8.854092735843828 2.7690618142453287 L 8.906721095563974 2.7244890972151796 C 8.923917501762936 2.709269817932139 8.940460996282688 2.6933746371220275 8.957298760855043 2.6778518918472396 C 8.99147087071352 2.647243208406999 9.022916384615849 2.614027476219481 9.054886067049377 2.5814600577416025 C 9.07116287933396 2.565440731753049 9.086014321051245 2.548152366162647 9.101215208455999 2.5312088482901376 L 9.146578776252518 2.4802679434028856 L 9.189468636419345 2.427451066930292 C 9.203690156305282 2.4098178536219956 9.218279513756968 2.392506498183734 9.231346943280354 2.374054846291637 C 9.339143682720781 2.2311687470929975 9.431105675894367 2.0769994374977148 9.505615828245116 1.914257889100082 C 9.515404905463722 1.8944130524276952 9.526554981675618 1.8691104258734441 9.539346533024686 1.841426051080941 C 9.545567585855487 1.8275171931258964 9.5525564996048 1.8131347443049446 9.558800542283462 1.7980947858352092 L 9.577224606358127 1.752055316511619 C 9.603239918196024 1.690566669426392 9.622831866541958 1.6266686862854818 9.637701700137532 1.5844593256152977 C 9.687263718099272 1.4033464445787946 9.714441083431597 1.2168417749857277 9.718625964603246 1.029116560719339 C 9.721244647071337 0.930371734240456 9.7171630121588 0.8315629878312598 9.706409159450665 0.7333705598841627 C 9.696100079942731 0.6335599983714229 9.679002012426423 0.5345678714456983 9.655233758115244 0.43708199863949293 C 9.608443250795261 0.24319170142194557 9.53675067247722 0.05617403484633088 9.441943145613227 -0.11930910331886069 C 9.395996115681227 -0.20353349404420362 9.345179010555603 -0.28500820558232143 9.289750352782821 -0.3633187505308483 C 9.23626269466694 -0.4376864933326633 9.178669544144629 -0.5090136431013065 9.117239132414122 -0.5769680046594766 C 9.017286891078783 -0.6865138036742675 8.901751888970816 -0.7807479402797476 8.774350149558094 -0.8566395038712358 C 8.76245980024512 -0.8637111810728431 8.751254548398363 -0.8704885882218462 8.74044472193479 -0.8765487121176314 L 8.709500386715796 -0.8928715040979311 C 8.690188914513751 -0.9029134696429945 8.673567254511276 -0.9112633823855933 8.659984852395839 -0.9179718199910176 C 8.632199322272754 -0.9304461114396247 8.616842103902556 -0.9366855561487143 8.616842103902556 -0.9366855561487143 C 8.578269737163756 -0.9573212435874716 8.537127105434255 -0.9731382589148609 8.515112027123925 -0.9782466031092589 C 8.49301878333087 -0.9833043696383662 8.489574904121504 -0.9770603269597045 8.523609074892823 -0.9508702922780741 C 8.541637713584304 -0.9393753683482853 8.563064251789429 -0.9258021621719903 8.585957542287996 -0.9096127113092758 C 8.609039349539014 -0.893717530499164 8.634590266450148 -0.8767418268396516 8.659984852395837 -0.8572510338243018 L 8.699145759239842 -0.8281091026775014 C 8.712291354245949 -0.8181636944934478 8.725032327929727 -0.8074182396038813 8.738039983848676 -0.7970176324322087 L 8.776589360739615 -0.7655491286820186 L 8.813120228988485 -0.7332483924393118 C 8.837296352997617 -0.7123782085523873 8.859182688159935 -0.6909470723776887 8.878995339045318 -0.671286154488178 C 8.888899365503224 -0.6614464996042791 8.898398770638803 -0.6521586010690098 8.907042953434003 -0.6431741685254864 L 8.930327071346184 -0.6173841571966121 C 8.944429044023249 -0.6014475946603529 8.955519346630709 -0.5881962463540922 8.96265539540632 -0.5785175204052102 C 8.969575339612055 -0.5686364837951636 8.972495050290222 -0.5622912857859201 8.970798399518184 -0.5606728004966062 C 8.969170718289725 -0.5591324806900143 8.953979026824118 -0.5737218381417023 8.930924807390532 -0.5953414910688491 C 8.919595410365332 -0.606344432254443 8.906380845815647 -0.619186561268803 8.892209903595003 -0.63295748013669 L 8.846524477928451 -0.6747990032411217 C 8.840349404793368 -0.6680353900008341 8.783918524237247 -0.6996280389294653 8.719855014191749 -0.7356347386471361 C 8.70370234708561 -0.7445042219513609 8.68720943023115 -0.7538381001823493 8.671006185459719 -0.7632225560786292 C 8.654802940688286 -0.7726070119749091 8.63824565225982 -0.7810994617742372 8.623109136429076 -0.7898310059913045 L 8.58106990063305 -0.8142002447224568 C 8.568269153344838 -0.821382273193789 8.55723402637224 -0.8279941534382036 8.548668009059762 -0.8336450580420877 C 8.512311863654627 -0.8532921820228829 8.385504460830767 -0.9223858707800574 8.251749525983744 -0.9724439655095023 L 8.201879948006749 -0.9911071240019073 C 8.185442206787151 -0.9973511666805681 8.168678009727946 -1.0022480042746587 8.152608106074101 -1.0077011961869506 C 8.136441645059246 -1.0129152936815027 8.120799352575592 -1.0183133099589314 8.10551110374897 -1.022911279530847 L 8.061306224284577 -1.0353257973750194 C 8.047264025211945 -1.0391651019675687 8.034104636297123 -1.0431009639211288 8.021703912361666 -1.0461402218081644 L 7.987444441081324 -1.0540073477457121 C 7.966794959733851 -1.0586788848307784 7.950771035775724 -1.0621365579488584 7.940839421500389 -1.0640079315646285 C 7.881203756152644 -1.0776133235279257 7.879226629236719 -1.0707669468353445 7.914585015244751 -1.051211782245987 C 7.950076742370367 -1.0314405130867506 8.020140602707215 -0.9996087697403792 8.10337304789803 -0.9557855217504518 C 8.194856415096597 -0.9079000600775777 8.283265942193855 -0.8543586411278621 8.368087352092347 -0.7954727146560476 C 8.44555851369028 -0.7412974910431174 8.520249234554255 -0.6832510872979736 8.591875129127057 -0.621554515598336 C 8.620736584129968 -0.5961369398047904 8.634010922284087 -0.5821545143365955 8.637454801493451 -0.5750644452567018 C 8.64107340354655 -0.5681950787162598 8.635422498942665 -0.5688985680607627 8.62609781665082 -0.5725309640225759 C 8.607328904858262 -0.579731384372196 8.572811947281892 -0.5970473377800294 8.568581815275728 -0.5915113824154435 C 8.583722929076046 -0.5802969346295418 8.59800882053599 -0.5699009254274402 8.611048662241942 -0.5593255954120346 C 8.62388619328673 -0.5485111709788897 8.635919079656432 -0.5381059658376443 8.64740940561665 -0.5279858348098585 C 8.670771689011552 -0.508182379863618 8.690106151061457 -0.48740415536813164 8.710286639512594 -0.46767886590461416 C 8.73055908735517 -0.4480317419238189 8.748909583916685 -0.4264672646315353 8.770441875421966 -0.4048246218565288 C 8.781279289702969 -0.3940653730582463 8.791472988243907 -0.38188535166224225 8.803087459382564 -0.36983407341425145 C 8.814389268590332 -0.35750231902237406 8.827121046334968 -0.34527171996107886 8.8397056890533 -0.3313168823103153 C 8.839245892096109 -0.3309214569271306 8.843384064710833 -0.3251831909013806 8.851260386587523 -0.315132029417173 C 8.859228667855653 -0.30517282732440354 8.870760375542018 -0.29076279068602073 8.885032473093244 -0.27291807077741626 L 8.933495072381234 -0.2088269729144855 L 8.96094954869514 -0.16999252191008707 L 8.975529710207685 -0.14945798980191194 C 8.980192051353606 -0.14231274508715552 8.984918764073536 -0.1350617470722446 8.989709848367474 -0.12770499575717986 C 9.0293581399861 -0.0697705791510439 9.067351162558838 -0.0025298721313511408 9.102065832826801 0.06227850898479814 C 9.118466790289823 0.0952045690892851 9.135198801562023 0.12698113680079381 9.14858808895544 0.1579162760806414 C 9.155485043313314 0.1732964842986986 9.162611896149784 0.18796860520268077 9.16867202004557 0.2023372601149167 L 9.185587950100645 0.24347989184441698 C 9.185587950100645 0.24347989184441698 9.187588066864429 0.24771002385057894 9.192080283136189 0.2572278208644445 C 9.196779408038688 0.266667452395587 9.202862521782333 0.28184075198290826 9.211419343155667 0.30358455008849705 C 9.215686258918405 0.3144725420347929 9.220587694482067 0.3269882152095467 9.22618802142066 0.34128790057820435 C 9.231448098610931 0.3556933392470154 9.236698979862059 0.37209429671003824 9.242887846905855 0.3903850196671186 L 9.25254358300688 0.4193108462440389 C 9.255483218219858 0.4295827102676981 9.258569988459136 0.4403695468834121 9.261803893724716 0.4516713560911807 C 9.268052534372952 0.47435313998943984 9.275662174014471 0.4989476792296159 9.281501595370802 0.5264113514826674 C 9.298881920352644 0.5992707773192414 9.301916580270108 0.5987236189401832 9.306960552890498 0.5977074676647898 L 9.297640468568225 0.5995466554935558 C 9.304400084888051 0.6212532652185385 9.309884101446954 0.6433367182373655 9.314064415879109 0.6656838498159889 C 9.318170402706828 0.6911749931226887 9.322510885982716 0.7190202968502095 9.325826022044069 0.7469943437257436 C 9.328414678913056 0.7750419581144286 9.331003335782045 0.8030895725031131 9.333375888081152 0.8288382021058402 C 9.33487942413117 0.8546328114042865 9.33665424038593 0.8780364765253359 9.339045184563325 0.8967778005004639 L 9.329541181458175 0.8972375974576559 C 9.345914551103768 1.0466991963623422 9.326718028141018 1.1970528013639803 9.305231716331459 1.3446522225920412 L 9.29587025028304 1.3429831596374355 C 9.292499938586822 1.3613474501076661 9.289525052273794 1.37976691621276 9.286035193368711 1.3968713630202858 C 9.281897020753986 1.413842468710226 9.278057716161435 1.4296640820071875 9.274756374008803 1.4432234942747666 C 9.26790999731622 1.4702779472359175 9.262640724186804 1.4880766874488023 9.260346337370418 1.4874789514044537 L 9.251122810409157 1.4851109970749174 C 9.228316881332454 1.5555151071600877 9.190052578554972 1.6988016329296913 9.178870316556075 1.6946910481323991 L 9.187758191738588 1.6980889476460446 C 9.140195755986612 1.8222540793902153 9.079299338899844 1.9408910916453546 9.006138393647925 2.0519165001136597 C 8.943245040598509 2.1471740416259633 8.872041875636564 2.2366765246122093 8.793362753737965 2.3193757921424107 C 8.684424583629617 2.4304036785255336 8.564359491469627 2.529936632270565 8.435061376876869 2.6164046264881615 L 8.383311229344969 2.648801920091878 L 8.357397072837653 2.6652028775549006 L 8.330618498050816 2.680376177142222 L 8.276822254059404 2.7109894585520355 L 8.221352349143817 2.739312951115035 L 8.193502447446724 2.7535666567879735 C 8.184168569215736 2.7582473898121833 8.174480647327709 2.762220035522318 8.164995036100848 2.766606498493926 L 8.107621571782484 2.7925850265752485 C 8.088236532067288 2.800760216474114 8.068469860877624 2.8081399576370387 8.04887331456212 2.8160576612398773 L 8.01939573163657 2.827814669435265 C 8.009569870661386 2.8317551293583967 7.999389966029165 2.8347667994280017 7.98939398017982 2.8383118339679485 L 7.929110001122435 2.8590256868894284 C 7.908832955310288 2.8654628442901102 7.888224855688961 2.870943624019833 7.867777685002654 2.877040531672193 C 7.82708105632163 2.8900343936824266 7.785014232708173 2.8981038302811384 7.743485371534634 2.908642376539969 C 7.659544839029744 2.9254065735991728 7.574772074032336 2.940322386890467 7.4891854684207 2.946345727029676 C 7.446543898610757 2.951109223506181 7.403663234383073 2.951693165641814 7.3609480970599765 2.9534771778357167 C 7.339585930428857 2.954879558555152 7.318242155676025 2.953605920983731 7.296935164679768 2.9535967250445867 C 7.275637369622654 2.9531369280873956 7.2543165847176825 2.9535369514401517 7.233129140930296 2.952465624529896 L 7.169732336472725 2.948474586941473 C 7.1591937902138945 2.9477527057186816 7.1486276561376325 2.9473572803354977 7.1381396875440934 2.946400902664539 L 7.106790731002772 2.9428098884288727 L 7.044272138733439 2.9358255726491334 L 6.982617964743623 2.925746823347494 C 6.946137674160045 2.920123506561042 6.909928663781211 2.913148386720446 6.891044802749354 2.9126380120979634 C 6.872220715321931 2.911971306510036 6.8709746655679425 2.916537090294947 6.906218102336675 2.9295493441834686 L 6.851745956818192 2.917015279130427 C 6.833662142491848 2.91250926894995 6.815849608370247 2.9069365298287884 6.797880743283201 2.9019891145694072 C 6.780003837587595 2.8967106455008476 6.7618786415351035 2.8922414190769463 6.744199448531088 2.8863560180248933 L 6.69132279845406 2.8684239366944237 C 6.655835669298015 2.8571175295170828 6.634243604188299 2.848413573117447 6.618509352313205 2.843879975119538 C 6.607229379033003 2.8404162697322755 6.595746333344756 2.837652230919914 6.584125735854419 2.8356036298900897 C 6.56516370933984 2.832601155759629 6.547001729530773 2.827373264356361 6.478501178848376 2.796714003250829 C 6.3415877705233905 2.733819580267291 6.212402746721604 2.655310930323663 6.09351778456146 2.562750919553478 C 6.063037844269232 2.540487550886263 6.035197138511284 2.51498721164042 6.0062069403603555 2.4908432734182915 C 5.99152562351723 2.4789667180140333 5.978196109728246 2.465591224529331 5.964365417255925 2.4527858792715462 L 5.923061856591408 2.4140755734455897 L 5.883698639086239 2.3733927386732807 C 5.8707737466195855 2.3596448096532536 5.856970641964694 2.3466923293691675 5.844896373868844 2.332167343491486 L 5.807593046731893 2.289557959468545 C 5.801436365475098 2.2824035188146445 5.7949854141657005 2.2754927705480554 5.789067827326645 2.2681452151721344 L 5.771475995744496 2.245950816048498 C 5.676741323730312 2.128145129905392 5.595571002423349 2.000048192493306 5.529498651083299 1.8640802471617701 C 5.464432940950719 1.727722155421691 5.414922974184454 1.584473318244629 5.38190382782481 1.4370392252005417 C 5.348810690910816 1.2895435112030542 5.3324611668454915 1.1387854752414683 5.333165350362504 0.9876244833023731 L 5.33452175138622 0.9309683022372299 L 5.335211446822008 0.9026448096742299 L 5.337133398103068 0.8743902866548092 L 5.340880743304179 0.8178858385855392 L 5.347032826591403 0.7616204849340085 C 5.350329570774466 0.7239998978965954 5.357525393154513 0.6869264692382406 5.36282225410136 0.6495863583447146 C 5.365898295744972 0.6309829734567445 5.3700318703901235 0.6125773012603664 5.37354931711264 0.5940566798246907 C 5.377255280587604 0.5755682441760184 5.380529034922807 0.5569878491359075 5.38536150094289 0.5387568997832628 C 5.452491856692856 0.24454202281553172 5.588026205764212 -0.03292245100171165 5.774689976475266 -0.2710237073137858 C 5.678624598209235 -0.15407435125211433 5.604197264748639 -0.04339662568653546 5.540984379073944 0.07350215270984539 C 5.475386848380142 0.19651295015251402 5.424597581560324 0.32686388820625845 5.38967899437092 0.4618282708755437 C 5.3873800095849615 0.46120754498333505 5.383959120223457 0.46026036325152053 5.3784277628284425 0.4686562556898384 C 5.373287232847042 0.4771487054891663 5.366523619606753 0.4951635502719314 5.357447227671791 0.5323427322304406 C 5.32991850138311 0.646805480310374 5.312907314619174 0.7635444224284693 5.30662586999341 0.8811033222298059 C 5.300722258640147 0.996358128042377 5.304105025395513 1.1119011394356533 5.316741403051624 1.2266131477418267 C 5.327656982815351 1.3362931139102998 5.3497778144258366 1.4370484211396852 5.370358326229731 1.5244190389452248 L 5.386510993335869 1.5872319012671627 C 5.391182530420935 1.607462967383591 5.397923153813363 1.6261445177542835 5.402898156890177 1.644320291472066 L 5.417482916372292 1.6957577770730854 L 5.431566497171071 1.7404638352208197 C 5.437645012945142 1.7587729500561875 5.442698181504678 1.7775234699704594 5.449282473931661 1.7983154883746613 C 5.45640932676813 1.8188776083002676 5.46433162834054 1.8417846927075505 5.474396583733464 1.8691242197821603 C 5.479160080209969 1.882918128497907 5.485325957405907 1.8974339184364446 5.492526377755526 1.91314518046368 C 5.499726798105146 1.9288564424909151 5.507580130133978 1.9459884771158724 5.516182931203033 1.9647481929692878 C 5.524459276432481 1.9837194154230113 5.536193294780009 2.002911340416187 5.547798569979523 2.024627550704344 C 5.559707311170784 2.0461644401791963 5.572494264550283 2.069687652509116 5.588720499169572 2.0939557359096863 L 5.572921875720468 2.069388784486941 C 5.567804335586925 2.061112439257493 5.563160386319291 2.0525510199145867 5.558254352786056 2.0441505295066973 L 5.529158401334975 1.993572864215626 C 5.510099817459385 1.9596720345618932 5.493340218369754 1.9245435470324583 5.475320775617416 1.8900633732126635 L 5.462478646603056 1.8962476422868897 C 5.534779595735816 2.0503480938098564 5.625109754292563 2.1953254901942025 5.731574815799413 2.3281395221464876 C 5.843434219544974 2.46513142757214 5.971901489384295 2.5889409542351096 6.098032990681082 2.683649931477426 L 6.089581922607901 2.695112669620211 L 6.15424316869775 2.741092365339366 C 6.170524578951903 2.7524171643949944 6.187532468398419 2.762661440601222 6.199960780151306 2.7708320325305165 L 6.220830964038231 2.7842121239847906 C 6.2498533479761615 2.812719535330667 6.226012875745779 2.8044707779186497 6.167761199239182 2.7722574030978095 C 6.153001716913333 2.7645144223387037 6.136876637624625 2.7541322070453185 6.118967546142014 2.7423981886977904 C 6.1010584546594036 2.7306641703502623 6.081181432200012 2.7178266393054735 6.060214690952078 2.7033154473365086 L 5.994872945365584 2.654388453121755 C 5.971680786844842 2.6372288306793665 5.949215107516463 2.6168460315670647 5.924937828176748 2.5969138334728106 C 5.822382485992305 2.508352397722914 5.728735766257572 2.4099717523762014 5.645335298508563 2.303177145340557 C 5.569813341104533 2.2060645556538026 5.502333823154874 2.1029569225002867 5.443567197753767 1.9948786875740505 L 5.4267708149075595 2.003757366817419 C 5.4267708149075595 2.003757366817419 5.431423960114339 2.012801572965377 5.4384128738636495 2.0263701811721 L 5.466304157286889 2.0748787601558085 C 5.476599011158409 2.0924246120422385 5.486240953350715 2.1103704872814246 5.494544886397595 2.123157440660922 L 5.508269825569762 2.1445701849573324 L 5.500227976788482 2.1496279514864396 C 5.43737860935561 2.0493457740396095 5.382523864949158 1.944270035216642 5.3361724224625355 1.8353751231243018 C 5.292753074078068 1.7308082968772505 5.257271337472911 1.6231196508515326 5.230028294894866 1.5132229830376116 C 5.223713750016102 1.4858558681455691 5.217400737793862 1.4584764920013358 5.211089258228146 1.4310848546049106 C 5.20614797359486 1.4033989471558836 5.201194427709384 1.375657864071993 5.1962286205717145 1.3478616053532395 C 5.190591509876545 1.3201542407128763 5.188255741334014 1.2918721298760238 5.184319879380454 1.2637187621871853 C 5.182526671247406 1.2496183221666444 5.1807303978013115 1.235476500419956 5.178931059042168 1.2212932969471204 C 5.177261996087563 1.207108560817761 5.176595290499636 1.192785885601244 5.175376828563079 1.1784724063238712 C 5.165016598175734 1.0605312137371676 5.16449676372446 0.9419320602593113 5.173822714847772 0.823904580755175 C 5.172503097580631 0.8443195656544811 5.170852426504314 0.869829100839469 5.1690362285234075 0.8978813131977255 C 5.168424698570342 0.9259841032212734 5.1677579929824145 0.9566433643268057 5.167091287394487 0.9872934294931954 C 5.168337337148476 1.048584363886829 5.169027032584263 1.1099350718848982 5.1732617625599975 1.1506317005659228 C 5.168907485375394 1.1509351665576686 5.162930124931904 1.151362777727857 5.1708294366564544 1.23298133559893 C 5.151669697450283 1.0698545711265104 5.15456641828059 0.8840230329079724 5.17811262045837 0.7010560297327373 C 5.190796650349359 0.6104934214749937 5.208203768072734 0.5206553820590647 5.230262791343035 0.43190928287109176 C 5.2533951762593425 0.3452191645621938 5.278569059665581 0.2615866960186224 5.307237399946473 0.18447414832802678 C 5.313311317750974 0.16478104465151233 5.315950552285254 0.15473448113687693 5.314033198973765 0.1539436303705075 C 5.312115845662277 0.15315277960413787 5.305623512626731 0.16160384767731895 5.296197675004305 0.18009228332599125 C 5.291388198832081 0.18928822246982224 5.28565759608895 0.2009272161128648 5.279005866774913 0.21500926425511824 C 5.272426172317501 0.22911123693218305 5.264513066684235 0.24551219439520566 5.257243676791037 0.2649294198974048 L 5.232235320289388 0.33038611472319435 C 5.224004954755659 0.3549852519329426 5.215498711047615 0.38225121149440167 5.206233802360206 0.4120184665029829 C 5.1773209586047235 0.5190889743302072 5.156496342576283 0.6281811284719709 5.1439359126303215 0.7383731507784039 C 5.130760440457983 0.8485075025439395 5.126396904785724 0.9595178180961481 5.130886874985226 1.0703465538707047 L 5.12139206781922 1.0706730097103119 C 5.117511381500523 0.987215264010473 5.121755307415401 0.8827861790931268 5.131732901386458 0.7790283977332813 C 5.141190924795889 0.6751142854079899 5.160934606137695 0.5725795639542739 5.176866570704381 0.4905977664870196 C 5.184779676337648 0.44953789820981394 5.1702776803078265 0.48899767307599307 5.158506878203723 0.5294230215522746 C 5.146855623308489 0.5698207822111245 5.135181378565395 0.6105863804357274 5.14100240804344 0.568878198448882 L 5.153292780709171 0.506805609228022 L 5.167721209225841 0.44522040478178515 L 5.1746825351577215 0.4143542350455165 L 5.182646218456278 0.38372256175741515 C 5.187857250637784 0.36327079310153443 5.192853710905931 0.3427224670846438 5.197635599260723 0.32207758370674355 C 5.156130050007715 0.4566251041821521 5.127670747498022 0.5948551222260483 5.112651327663008 0.734855704055889 C 5.110714049816707 0.7532016026478321 5.108778304626932 0.7715306420180115 5.10684409209368 0.7898428221664269 C 5.105230204773936 0.8081703288800821 5.104388776342276 0.826516227472025 5.103119736740428 0.8447425788550986 C 5.102053007799744 0.862982724146887 5.100540275810584 0.881126312077666 5.099827590526937 0.8991733426474346 C 5.099395381387176 0.9172280364998229 5.098967770216988 0.9351493892346254 5.098544757016373 0.9529374008518428 C 5.097004437209781 0.9884797056427499 5.0980849600591815 1.0233690987544448 5.098645912346955 1.057288320286466 C 5.098885006764694 1.0742517626937862 5.099121035869386 1.0909577188050794 5.099353999661029 1.1074061886203452 C 5.10030731201894 1.1238178746790357 5.101242232498563 1.1399276274025034 5.102158761099898 1.1557354467907497 C 5.102531196635222 1.176886106821561 5.10290823014012 1.1980045810653688 5.103257675827586 1.2178356238290404 C 5.104177269741968 1.2376574706535686 5.105014100204057 1.2561734941196727 5.10574057939642 1.2720916647776441 C 5.1067935144283885 1.3039555939110188 5.105965879905444 1.325552256990306 5.101271352972518 1.3262511483652375 C 5.132091075365366 1.5154391935829894 5.182100723169735 1.7009960778487025 5.250526043246468 1.8800489954850343 C 5.3052053280616 2.0201858743190444 5.3694127724602785 2.156415651731214 5.442698181504684 2.2877831432137965 C 5.463756882144051 2.3253945343120557 5.536115129297286 2.433961791844125 5.638893543138314 2.545568307263231 C 5.665134155485237 2.572871050581265 5.691802379002347 2.6016635360406006 5.719859189330175 2.6295364275855526 C 5.748785015907095 2.656521911003125 5.776979765322081 2.6848040218399767 5.806604483273933 2.710488279868698 L 5.850717403346891 2.748426126806573 C 5.865201007498426 2.7609372020117546 5.879427125353931 2.773296544221064 5.894149823923205 2.7843822488589516 C 5.92335612664401 2.806801948491611 5.950415177574732 2.829267627819991 5.976816718856671 2.848110107125701 Z" fill="#d3b39f" transform="matrix(1,0,0,1,0,0)" fill-rule="nonzero"></path></g></g><g><path d=" M 0.10693359375 0 L 0.2607421875 0 L 0.56396484375 0.837158203125 L 0.568359375 0.837158203125 Q 0.566162109375 0.807861328125 0.5625 0.77197265625 Q 0.558837890625 0.736083984375 0.555908203125 0.6903076171875 Q 0.552978515625 0.64453125 0.55078125 0.586669921875 Q 0.548583984375 0.52880859375 0.548583984375 0.456298828125 L 0.548583984375 0 L 0.718505859375 0 L 0.718505859375 1.2509765625 L 0.563232421875 1.2509765625 L 0.261474609375 0.435791015625 L 0.255615234375 0.435791015625 Q 0.2578125 0.46875 0.261474609375 0.5072021484375 Q 0.26513671875 0.545654296875 0.26806640625 0.59765625 Q 0.27099609375 0.649658203125 0.273193359375 0.7188720703125 Q 0.275390625 0.7880859375 0.275390625 0.88330078125 L 0.275390625 1.2509765625 L 0.10693359375 1.2509765625 L 0.10693359375 0 M 0.932373046875 0 L 1.39599609375 0 L 1.39599609375 0.1494140625 L 1.1220703125 0.1494140625 L 1.1220703125 0.523681640625 L 1.333740234375 0.523681640625 L 1.333740234375 0.673095703125 L 1.1220703125 0.673095703125 L 1.1220703125 1.1015625 L 1.4033203125 1.1015625 L 1.4033203125 1.2509765625 L 0.932373046875 1.2509765625 L 0.932373046875 0 M 1.540283203125 0 L 1.74609375 0 Q 1.78125 0 1.8233642578125 0.0029296875 Q 1.865478515625 0.005859375 1.9075927734375 0.0172119140625 Q 1.94970703125 0.028564453125 1.9888916015625 0.05126953125 Q 2.028076171875 0.073974609375 2.0584716796875 0.113525390625 Q 2.0888671875 0.153076171875 2.107177734375 0.2127685546875 Q 2.12548828125 0.2724609375 2.12548828125 0.357421875 L 2.12548828125 0.388916015625 Q 2.12548828125 0.53173828125 2.08447265625 0.6214599609375 Q 2.04345703125 0.711181640625 1.963623046875 0.750732421875 L 2.164306640625 1.2509765625 L 1.963623046875 1.2509765625 L 1.79736328125 0.782958984375 L 1.726318359375 0.782958984375 L 1.726318359375 1.2509765625 L 1.540283203125 1.2509765625 L 1.540283203125 0 M 1.7548828125 0.64599609375 Q 1.8046875 0.64599609375 1.839111328125 0.635009765625 Q 1.87353515625 0.6240234375 1.894775390625 0.5980224609375 Q 1.916015625 0.572021484375 1.925537109375 0.5291748046875 Q 1.93505859375 0.486328125 1.93505859375 0.42333984375 L 1.93505859375 0.324462890625 Q 1.93505859375 0.276123046875 1.92626953125 0.240966796875 Q 1.91748046875 0.205810546875 1.8966064453125 0.18310546875 Q 1.875732421875 0.160400390625 1.84130859375 0.1494140625 Q 1.806884765625 0.138427734375 1.7548828125 0.138427734375 L 1.726318359375 0.138427734375 L 1.726318359375 0.64599609375 L 1.7548828125 0.64599609375 M 2.307861328125 0 L 2.771484375 0 L 2.771484375 0.1494140625 L 2.49755859375 0.1494140625 L 2.49755859375 0.523681640625 L 2.709228515625 0.523681640625 L 2.709228515625 0.673095703125 L 2.49755859375 0.673095703125 L 2.49755859375 1.1015625 L 2.77880859375 1.1015625 L 2.77880859375 1.2509765625 L 2.307861328125 1.2509765625 L 2.307861328125 0 M 2.915771484375 0 L 3.10546875 0 L 3.10546875 1.2509765625 L 2.915771484375 1.2509765625 L 2.915771484375 0 M 3.3193359375 0 L 3.516357421875 0 Q 3.56103515625 0 3.6090087890625 0.0025634765625 Q 3.656982421875 0.005126953125 3.7027587890625 0.018310546875 Q 3.74853515625 0.031494140625 3.7891845703125 0.0589599609375 Q 3.829833984375 0.08642578125 3.860595703125 0.1358642578125 Q 3.891357421875 0.185302734375 3.9093017578125 0.2603759765625 Q 3.92724609375 0.33544921875 3.92724609375 0.44384765625 L 3.92724609375 0.80712890625 Q 3.92724609375 0.91552734375 3.9093017578125 0.990966796875 Q 3.891357421875 1.06640625 3.860595703125 1.115478515625 Q 3.829833984375 1.16455078125 3.7891845703125 1.1920166015625 Q 3.74853515625 1.219482421875 3.7027587890625 1.232666015625 Q 3.656982421875 1.245849609375 3.6090087890625 1.2484130859375 Q 3.56103515625 1.2509765625 3.516357421875 1.2509765625 L 3.3193359375 1.2509765625 L 3.3193359375 0 M 3.557373046875 1.118408203125 Q 3.608642578125 1.118408203125 3.6419677734375 1.105224609375 Q 3.67529296875 1.092041015625 3.6947021484375 1.0587158203125 Q 3.714111328125 1.025390625 3.721435546875 0.9678955078125 Q 3.728759765625 0.910400390625 3.728759765625 0.822509765625 L 3.728759765625 0.434326171875 Q 3.728759765625 0.346435546875 3.721435546875 0.2889404296875 Q 3.714111328125 0.2314453125 3.6947021484375 0.1981201171875 Q 3.67529296875 0.164794921875 3.6419677734375 0.151611328125 Q 3.608642578125 0.138427734375 3.557373046875 0.138427734375 L 3.509033203125 0.138427734375 L 3.509033203125 1.118408203125 L 3.557373046875 1.118408203125 M 4.234130859375 0 L 4.452392578125 0 L 4.683837890625 1.2509765625 L 4.491943359375 1.2509765625 L 4.45751953125 1.02685546875 L 4.22900390625 1.02685546875 L 4.196044921875 1.2509765625 L 4.00341796875 1.2509765625 L 4.234130859375 0 M 4.435546875 0.884033203125 L 4.34765625 0.2607421875 L 4.339599609375 0.2607421875 L 4.2509765625 0.884033203125 L 4.435546875 0.884033203125" fill="#595959" fill-rule="nonzero"></path></g><g><path d=" M 1.4125088778409092 1.7217826704545454 L 1.412841796875 1.8419664417613635 Q 1.412841796875 1.9678098366477272 1.4181685014204546 2.118622159090909 Q 1.4185014204545454 2.1292755681818183 1.4126753373579546 2.1342693536931816 Q 1.4068492542613638 2.1392631392045454 1.3995250355113638 2.1392631392045454 Q 1.3922008167613638 2.1392631392045454 1.3862082741477273 2.133603515625 Q 1.380215731534091 2.1279438920454545 1.380215731534091 2.1172904829545454 Q 1.3852095170454546 1.9674769176136362 1.3852095170454546 1.8676012073863635 L 1.3852095170454546 1.6951491477272727 Q 1.3852095170454546 1.67583984375 1.3848765980113638 1.6588609730113637 Q 1.3775523792613638 1.6871590909090908 1.3659002130681819 1.7324360795454545 Q 1.3392666903409092 1.8319788707386362 1.32861328125 1.8700981001420454 Q 1.317959872159091 1.9082173295454545 1.3073064630681819 1.9451713423295454 Q 1.2853338068181819 2.0214098011363637 1.266357421875 2.0790047940340908 Q 1.2643599076704546 2.085663174715909 1.2585338245738638 2.0889923650568183 Q 1.252707741477273 2.092321555397727 1.2473810369318183 2.092321555397727 Q 1.237060546875 2.092321555397727 1.2333984375 2.0790047940340908 Q 1.2317338423295456 2.073678089488636 1.2255748401988638 2.0532035688920454 Q 1.2194158380681819 2.0327290482954545 1.2102605646306819 2.002599875710227 Q 1.2011052911931819 1.972470703125 1.1899525035511365 1.9350173117897727 Q 1.178799715909091 1.8975639204545454 1.1669810901988638 1.858279474431818 Q 1.1551624644886365 1.8189950284090908 1.1438432173295456 1.7803764204545454 Q 1.1325239701704546 1.7417578125 1.1232022372159092 1.7091317471590908 Q 1.1155450994318183 1.6821653053977272 1.1102183948863638 1.6625230823863637 L 1.1108842329545456 1.7450870028409091 Q 1.1108842329545456 1.8958993252840908 1.1140469637784092 1.994443359375 Q 1.117209694602273 2.092987393465909 1.1175426136363638 2.1089675071022724 Q 1.1178755326704546 2.124947620738636 1.1160444779829546 2.128609730113636 Q 1.1142134232954546 2.132271839488636 1.1112171519886365 2.1346022727272724 Q 1.098233309659091 2.1455886008522724 1.0855823863636365 2.1339364346590908 Q 1.0795898437500002 2.1282768110795454 1.0804221413352273 2.113961292613636 Q 1.0812544389204546 2.099645774147727 1.0819202769886365 2.0781724964488637 Q 1.0825861150568183 2.05669921875 1.0829190340909092 2.0327290482954545 Q 1.084250710227273 1.9761328125 1.084250710227273 1.927859552556818 L 1.0802556818181819 1.6249032315340908 Q 1.0802556818181819 1.609921875 1.087246981534091 1.6037628728693183 Q 1.09423828125 1.5976038707386362 1.1035600142045456 1.5976038707386362 Q 1.1212047230113638 1.5976038707386362 1.1278631036931819 1.6189106889204545 Q 1.1285289417613638 1.620908203125 1.1313587535511365 1.6307293146306816 Q 1.1341885653409092 1.6405504261363637 1.1388494318181819 1.6563640802556818 Q 1.1435102982954546 1.672177734375 1.1496693004261365 1.6929851740056818 Q 1.1558283025568183 1.7137926136363637 1.1628196022727273 1.7377627840909091 Q 1.1698109019886365 1.7617329545454545 1.1774680397727273 1.7880335582386362 Q 1.2041015625 1.8795862926136362 1.2510431463068183 2.0387215909090908 Q 1.2756791548295456 1.9684756747159091 1.3419300426136365 1.7201180752840908 Q 1.3549138849431819 1.6708460582386362 1.3678977272727273 1.6195765269886362 Q 1.3738902698863638 1.5966051136363637 1.395530007102273 1.5966051136363637 Q 1.4041859019886365 1.5966051136363637 1.4093461470170454 1.6050945490056816 Q 1.4145063920454546 1.613583984375 1.413840553977273 1.6295640980113637 Q 1.4125088778409092 1.6518696732954545 1.4125088778409092 1.7217826704545454 M 1.6224143288352273 1.5996013849431816 Q 1.6304043856534092 1.5996013849431816 1.6370627663352273 1.606259765625 Q 1.6437211470170454 1.6129181463068183 1.647549715909091 1.6340585049715908 Q 1.6513782848011365 1.6551988636363637 1.6592018821022727 1.6944833096590908 Q 1.6670254794034092 1.733767755681818 1.6766801313920454 1.77837890625 Q 1.6863347833806819 1.8229900568181818 1.696988192471591 1.8704310191761362 Q 1.7076416015625 1.9178719815340908 1.7182950106534092 1.9624831321022727 Q 1.7439297762784092 2.0670197088068183 1.7582452947443183 2.11529296875 Q 1.7615744850852273 2.1276109730113637 1.7564142400568183 2.1349351917613637 Q 1.7512539950284092 2.1422594105113637 1.7449285333806819 2.1422594105113637 Q 1.7386030717329546 2.1422594105113637 1.7334428267045454 2.1385973011363637 Q 1.7282825816761365 2.1349351917613637 1.7242875532670454 2.1169575639204545 Q 1.7202925248579546 2.0989799360795454 1.7113037109375 2.0586967329545454 Q 1.7023148970170454 2.0184135298295454 1.6919944069602273 1.9721377840909091 Q 1.6916614879261365 1.9701402698863635 1.6913285688920454 1.9684756747159091 Q 1.6686900745738638 1.9674769176136362 1.627408114346591 1.9674769176136362 Q 1.5788019353693183 1.9674769176136362 1.5531671697443183 1.96880859375 Q 1.5528342507102273 1.9708061079545454 1.5525013316761365 1.9728036221590908 Q 1.532193270596591 2.0706818181818183 1.5225386186079546 2.1242817826704545 Q 1.5192094282670456 2.1412606534090908 1.5048939098011365 2.1412606534090908 Q 1.4899125532670456 2.1412606534090908 1.4865833629261365 2.1266122159090908 Q 1.4855846058238638 2.122284268465909 1.4885808771306819 2.1129625355113637 Q 1.4915771484375 2.1036408025568183 1.497403231534091 2.0808358487215908 Q 1.5032293146306819 2.0580308948863637 1.5100541548295456 2.0285675603693183 Q 1.5168789950284092 1.9991042258522727 1.5245361328125 1.9641477272727272 Q 1.532193270596591 1.9291912286931818 1.5401833274147727 1.8922372159090908 Q 1.5481733842329546 1.855283203125 1.5561634410511365 1.8178298117897727 Q 1.5641534978693183 1.7803764204545454 1.5714777166193183 1.745419921875 Q 1.5788019353693183 1.7104634232954545 1.585293856534091 1.6798348721590908 Q 1.5917857776988638 1.6492063210227272 1.5957808061079546 1.6312286931818183 Q 1.6021062677556819 1.5996013849431816 1.6224143288352273 1.5996013849431816 M 1.5594926313920454 1.9378471235795454 Q 1.5847944779829546 1.9391787997159091 1.6277410333806819 1.9391787997159091 Q 1.6633633700284092 1.9391787997159091 1.6846701882102273 1.9381800426136362 Q 1.6776788884943183 1.9078844105113635 1.6706875887784092 1.8759241832386362 Q 1.6597012606534092 1.8263192471590908 1.6497136896306819 1.7797105823863637 Q 1.6330677379261365 1.7034721235795454 1.6210826526988638 1.645877130681818 Q 1.6134255149147727 1.6841628196022727 1.5991099964488638 1.7500807883522727 Q 1.5804665305397727 1.8379714133522727 1.5708118785511365 1.883914240056818 Q 1.565152254971591 1.9115465198863635 1.5594926313920454 1.9378471235795454 M 1.8686079545454546 1.9847887073863635 Q 1.8712713068181819 2.060361328125 1.8729359019886365 2.1159588068181816 Q 1.8732688210227273 2.1272780539772724 1.867276278409091 2.1327712180397724 Q 1.8612837357954546 2.1382643821022724 1.854458895596591 2.1382643821022724 Q 1.8476340553977273 2.1382643821022724 1.8424738103693183 2.1331041370738637 Q 1.8373135653409092 2.1279438920454545 1.8373135653409092 2.117623401988636 L 1.8373135653409092 1.8672682883522727 Q 1.8373135653409092 1.737429865056818 1.8309881036931819 1.6342249644886362 Q 1.8299893465909092 1.6195765269886362 1.8389781605113638 1.6139169034090908 Q 1.8426402698863638 1.6115864701704545 1.8466352982954546 1.6110870916193183 Q 1.8506303267045456 1.6105877130681816 1.864280007102273 1.6065926846590908 Q 1.8985706676136365 1.5969380326704545 1.9323619495738638 1.5969380326704545 Q 1.966153231534091 1.5969380326704545 1.9882923473011365 1.6044287109375 Q 2.010431463068182 1.6119193892045454 2.0260786576704546 1.6272336647727272 Q 2.0593705610795454 1.6598597301136362 2.0593705610795454 1.723447265625 Q 2.0593705610795454 1.8053453480113637 1.9947842684659092 1.8815838068181818 Q 1.984463778409091 1.8939018110795454 1.9728116122159092 1.905886896306818 Q 2.0054376775568183 2.0057626065340908 2.0493829900568183 2.1096333451704545 Q 2.057373046875 2.1276109730113637 2.0413929332386367 2.135933948863636 Q 2.0373979048295454 2.1379314630681816 2.032071200284091 2.1379314630681816 Q 2.0200861150568183 2.1379314630681816 2.0150923295454546 2.1242817826704545 Q 2.0044389204545454 2.0933203125 1.9957830255681819 2.064855735085227 Q 1.9871271306818183 2.0363911576704545 1.9788041548295456 2.0094247159090908 Q 1.9641557173295456 1.960818536931818 1.951171875 1.9261949573863635 Q 1.91455078125 1.9584881036931818 1.8686079545454546 1.9847887073863635 M 1.8676091974431819 1.9531613991477272 Q 1.9202104048295456 1.9225328480113635 1.966153231534091 1.869931640625 Q 2.027743252840909 1.7983540482954545 2.027743252840909 1.726443536931818 Q 2.027743252840909 1.6518696732954545 1.9754749644886365 1.6302299360795454 Q 1.9468439275568183 1.6182448508522727 1.9025656960227273 1.6269007457386362 Q 1.881591796875 1.6308957741477272 1.8682750355113638 1.6375541548295454 Q 1.8639470880681819 1.7377627840909091 1.8639470880681819 1.8056782670454545 Q 1.8639470880681819 1.8779216974431818 1.8641135475852273 1.8834148615056818 Q 1.864280007102273 1.8889080255681818 1.8644464666193183 1.8934024325284091 Q 1.8646129261363638 1.8978968394886362 1.8649458451704546 1.9027241654829545 Q 1.8652787642045456 1.9075514914772727 1.8657781427556819 1.9165403053977272 Q 1.8662775213068183 1.9255291193181818 1.866943359375 1.9398446377840908 Q 1.867276278409091 1.9458371803977272 1.8676091974431819 1.9531613991477272 M 2.1927046342329546 1.6009330610795454 Q 2.2020263671875 1.6009330610795454 2.312555486505682 1.5982697088068183 Q 2.3278697620738638 1.5982697088068183 2.333529385653409 1.609921875 Q 2.334861061789773 1.6132510653409091 2.334861061789773 1.6175790127840908 Q 2.334861061789773 1.6219069602272727 2.329867276278409 1.6264013671875 Q 2.324873490767046 1.6308957741477272 2.3112238103693183 1.6305628551136362 Q 2.2975741299715913 1.6302299360795454 2.2847567471590913 1.6295640980113637 Q 2.2719393643465913 1.6288982599431816 2.2609530362215913 1.6285653409090908 Q 2.2413108132102275 1.6278995028409091 2.227328213778409 1.628232421875 Q 2.224664861505682 1.7048037997159091 2.224664861505682 1.7943590198863637 Q 2.224664861505682 1.8902397017045454 2.2248313210227275 1.9256955788352272 Q 2.224997780539773 1.9611514559659091 2.2256636186079546 1.9934446022727272 Q 2.2266623757102275 2.0760085227272724 2.2276611328125 2.1159588068181816 Q 2.2279940518465913 2.1272780539772724 2.2225008877840913 2.1327712180397724 Q 2.2170077237215913 2.1382643821022724 2.2105158025568183 2.1382643821022724 Q 2.204023881392046 2.1382643821022724 2.1978648792613638 2.1331041370738637 Q 2.191705877130682 2.1279438920454545 2.191705877130682 2.117623401988636 L 2.1913729580965913 2.074011008522727 L 2.1947021484375 1.7560733309659091 Q 2.1947021484375 1.6671839488636362 2.1923717151988638 1.628232421875 Q 2.174727006392046 1.6278995028409091 2.150423916903409 1.6295640980113637 Q 2.1217928799715913 1.6315616122159091 2.1089754971590913 1.6323939098011362 Q 2.0961581143465913 1.6332262073863637 2.0908314098011367 1.628232421875 Q 2.085504705255682 1.6232386363636362 2.085504705255682 1.6167467151988637 Q 2.085504705255682 1.6102547940340908 2.0908314098011367 1.6039293323863637 Q 2.0961581143465913 1.5976038707386362 2.1079767400568183 1.5981032492897727 Q 2.119795365767046 1.5986026278409091 2.128451260653409 1.598935546875 Q 2.137107155539773 1.5992684659090908 2.143599076704546 1.5996013849431816 Q 2.1500909978693183 1.5999343039772727 2.155084783380682 1.6002672230113637 Q 2.160078568892046 1.6006001420454545 2.1652388139204546 1.6007666015625 Q 2.1703990589488638 1.6009330610795454 2.177057439630682 1.6009330610795454 L 2.1927046342329546 1.6009330610795454 M 2.432406338778409 1.7023069069602272 Q 2.4322398792613638 1.7204509943181818 2.4322398792613638 1.8482919034090908 Q 2.4322398792613638 1.9761328125 2.4362349076704546 2.1172904829545454 Q 2.4365678267045454 2.1279438920454545 2.430075905539773 2.133603515625 Q 2.423583984375 2.1392631392045454 2.4164262251420454 2.1392631392045454 Q 2.409268465909091 2.1392631392045454 2.403775301846591 2.1342693536931816 Q 2.398282137784091 2.1292755681818183 2.398947975852273 2.1119637784090908 Q 2.3996138139204546 2.0946519886363637 2.4002796519886362 2.0640234375 Q 2.4009454900568183 2.033394886363636 2.401611328125 1.9987713068181818 Q 2.4029430042613638 1.9301899857954545 2.4029430042613638 1.8707639382102272 Q 2.4029430042613638 1.811337890625 2.4027765447443183 1.7782124467329545 Q 2.402610085227273 1.7450870028409091 2.401944247159091 1.7171218039772727 Q 2.4009454900568183 1.6551988636363637 2.398282137784091 1.6182448508522727 Q 2.3972833806818183 1.6075914417613637 2.4021107066761362 1.6024311967329545 Q 2.4069380326704546 1.5972709517045454 2.4145951704545454 1.5972709517045454 Q 2.4222523082386362 1.5972709517045454 2.4289106889204546 1.6024311967329545 Q 2.435569069602273 1.6075914417613637 2.4350696910511362 1.6199094460227272 Q 2.4345703125 1.6322274502840908 2.4340709339488638 1.6442125355113637 Q 2.4335715553977275 1.6561976207386362 2.433072176846591 1.6701802201704545 Q 2.4325727982954546 1.6841628196022727 2.432406338778409 1.7023069069602272 M 2.8052756569602275 1.6175790127840908 Q 2.803278142755682 1.7833726917613637 2.803278142755682 1.8521204723011362 Q 2.803278142755682 1.9208682528409091 2.8034446022727275 1.9529949396306818 Q 2.803611061789773 1.9851216264204545 2.8039439808238638 2.0140855823863637 Q 2.804609818892046 2.0753426846590908 2.805442116477273 2.097814719460227 Q 2.8062744140625 2.1202867542613637 2.8042768998579546 2.1246147017045454 Q 2.802279385653409 2.128942649147727 2.7989501953125 2.1319389204545454 Q 2.785300514914773 2.144256924715909 2.7699862393465913 2.1342693536931816 Q 2.7639936967329546 2.1302743252840908 2.7613303444602275 2.122284268465909 Q 2.7320334694602275 2.0363911576704545 2.6907515092329546 1.9356831498579545 Q 2.649469549005682 1.8349751420454545 2.6331565163352275 1.7933602627840908 Q 2.6035267223011367 1.7177876420454545 2.5815540660511367 1.6548659446022727 L 2.5858820134943183 2.1192879971590908 Q 2.5858820134943183 2.129608487215909 2.5805553089488638 2.1346022727272724 Q 2.575228604403409 2.139596058238636 2.568403764204546 2.139596058238636 Q 2.561578924005682 2.139596058238636 2.5557528409090913 2.134102894176136 Q 2.5499267578125 2.128609730113636 2.5502596768465913 2.117623401988636 Q 2.5535888671875 2.026070667613636 2.5535888671875 1.9088831676136362 L 2.5535888671875 1.7114621803977272 Q 2.5535888671875 1.6598597301136362 2.5529230291193183 1.6225727982954545 Q 2.5529230291193183 1.6102547940340908 2.5604137073863638 1.6037628728693183 Q 2.567904385653409 1.5972709517045454 2.576227361505682 1.5972709517045454 Q 2.594870827414773 1.5972709517045454 2.600863370028409 1.6149156605113637 Q 2.606855912642046 1.6325603693181816 2.617842240767046 1.662356622869318 Q 2.628828568892046 1.6921528764204545 2.642478249289773 1.7286075106534091 Q 2.6561279296875 1.7650621448863637 2.671775124289773 1.8058447265625 Q 2.687422318892046 1.8466273082386362 2.7030695134943183 1.8870769708806818 Q 2.7187167080965913 1.9275266335227272 2.7333651455965913 1.9654794034090908 Q 2.7480135830965913 2.0034321732954545 2.7599986683238638 2.034393643465909 Q 2.7719837535511367 2.0653551136363637 2.780306729403409 2.0873277698863637 Q 2.7806396484375 2.088326526988636 2.7809725674715913 2.0889923650568183 Q 2.7783092151988638 2.023740234375 2.776644620028409 1.9468359375 Q 2.7749800248579546 1.8532856889204545 2.7738148082386367 1.8066770241477272 Q 2.7726495916193183 1.760068359375 2.771484375 1.7122944779829545 Q 2.770319158380682 1.6645205965909091 2.7686545632102275 1.6175790127840908 Q 2.7686545632102275 1.6069256036931816 2.7744806463068183 1.6017653586647727 Q 2.780306729403409 1.5966051136363637 2.7872980291193183 1.5966051136363637 Q 2.7942893288352275 1.5966051136363637 2.7997824928977275 1.6017653586647727 Q 2.8052756569602275 1.6069256036931816 2.8052756569602275 1.6175790127840908 M 3.0240034623579546 1.986453302556818 Q 3.0356556285511362 1.986453302556818 3.0386518998579546 1.9954421164772727 Q 3.0416481711647725 2.004430930397727 3.0416481711647725 2.0250719105113637 Q 3.0416481711647725 2.045712890625 3.047307794744318 2.063690518465909 Q 3.0529674183238638 2.0816681463068183 3.062954989346591 2.0939861505681816 Q 3.0832630504261362 2.118622159090909 3.1192183061079546 2.118622159090909 Q 3.1551735617897725 2.118622159090909 3.176480379971591 2.0921550958806816 Q 3.197787198153409 2.0656880326704545 3.197787198153409 2.016083096590909 Q 3.197787198153409 1.949832208806818 3.1415238813920454 1.8982297585227272 Q 3.1255437677556817 1.8835813210227272 3.108731356534091 1.869265802556818 Q 3.0919189453125 1.8549502840909091 3.0759388316761362 1.8396360085227272 Q 3.0599587180397725 1.8243217329545454 3.047307794744318 1.8056782670454545 Q 3.0196755149147725 1.7647292258522727 3.0196755149147725 1.7124609375 Q 3.0196755149147725 1.6588609730113637 3.051302823153409 1.6259019886363637 Q 3.0825972123579546 1.5932759232954545 3.1298717151988633 1.5932759232954545 Q 3.1704878373579546 1.5932759232954545 3.1964555220170454 1.6205752840909091 Q 3.2254194779829546 1.6518696732954545 3.223089044744318 1.7071342329545454 Q 3.222756125710227 1.7097975852272727 3.2229225852272725 1.7127938565340908 Q 3.223089044744318 1.7157901278409091 3.222256747159091 1.7241131036931818 Q 3.2214244495738633 1.7324360795454545 3.2152654474431817 1.7389280007102272 Q 3.2091064453125 1.745419921875 3.2019486860795454 1.745419921875 Q 3.194790926846591 1.745419921875 3.189797141335227 1.7389280007102272 Q 3.1848033558238633 1.7324360795454545 3.186467950994318 1.7217826704545454 Q 3.1907958984375 1.6974795809659091 3.1907958984375 1.6849951171875 Q 3.1907958984375 1.6725106534090908 3.1863014914772725 1.66119140625 Q 3.1818070845170454 1.6498721590909091 3.1734841086647725 1.6412162642045454 Q 3.1555064808238633 1.6229057173295454 3.1268754438920454 1.6229057173295454 Q 3.095248135653409 1.6229057173295454 3.0752729936079546 1.6445454545454545 Q 3.0533003373579546 1.668515625 3.0533003373579546 1.7034721235795454 Q 3.0533003373579546 1.7384286221590908 3.0609574751420454 1.7599018998579545 Q 3.0686146129261362 1.781375177556818 3.0810990767045454 1.7986869673295454 Q 3.0935835404829546 1.8159987571022727 3.109563654119318 1.8303142755681818 Q 3.1255437677556817 1.8446297940340908 3.1420232599431817 1.8586123934659091 Q 3.1585027521306817 1.8725949928977272 3.1744828657670454 1.8874098899147727 Q 3.190462979403409 1.902224786931818 3.2031139026988633 1.9202024147727272 Q 3.230746182528409 1.960818536931818 3.230746182528409 2.013752663352273 Q 3.230746182528409 2.0756756036931816 3.1987859552556817 2.1126296164772724 Q 3.1671586470170454 2.1492507102272724 3.114224520596591 2.1492507102272724 Q 3.0649525035511362 2.1492507102272724 3.0339910333806817 2.111297940340909 Q 3.0046941583806817 2.0756756036931816 3.0046941583806817 2.031064453125 Q 3.0046941583806817 1.986453302556818 3.0240034623579546 1.986453302556818 M 3.374733664772727 1.6009330610795454 Q 3.3840553977272725 1.6009330610795454 3.4945845170454546 1.5982697088068183 Q 3.5098987926136362 1.5982697088068183 3.5155584161931817 1.609921875 Q 3.5168900923295454 1.6132510653409091 3.5168900923295454 1.6175790127840908 Q 3.5168900923295454 1.6219069602272727 3.5118963068181817 1.6264013671875 Q 3.5069025213068183 1.6308957741477272 3.493252840909091 1.6305628551136362 Q 3.4796031605113638 1.6302299360795454 3.4667857776988638 1.6295640980113637 Q 3.4539683948863638 1.6288982599431816 3.4429820667613638 1.6285653409090908 Q 3.42333984375 1.6278995028409091 3.4093572443181817 1.628232421875 Q 3.4066938920454546 1.7048037997159091 3.4066938920454546 1.7943590198863637 Q 3.4066938920454546 1.8902397017045454 3.4068603515625 1.9256955788352272 Q 3.4070268110795454 1.9611514559659091 3.407692649147727 1.9934446022727272 Q 3.40869140625 2.0760085227272724 3.4096901633522725 2.1159588068181816 Q 3.4100230823863638 2.1272780539772724 3.4045299183238638 2.1327712180397724 Q 3.3990367542613638 2.1382643821022724 3.392544833096591 2.1382643821022724 Q 3.3860529119318183 2.1382643821022724 3.3798939098011362 2.1331041370738637 Q 3.3737349076704546 2.1279438920454545 3.3737349076704546 2.117623401988636 L 3.3734019886363638 2.074011008522727 L 3.3767311789772725 1.7560733309659091 Q 3.3767311789772725 1.6671839488636362 3.3744007457386362 1.628232421875 Q 3.3567560369318183 1.6278995028409091 3.3324529474431817 1.6295640980113637 Q 3.3038219105113638 1.6315616122159091 3.2910045276988638 1.6323939098011362 Q 3.2781871448863638 1.6332262073863637 3.272860440340909 1.628232421875 Q 3.2675337357954546 1.6232386363636362 3.2675337357954546 1.6167467151988637 Q 3.2675337357954546 1.6102547940340908 3.272860440340909 1.6039293323863637 Q 3.2781871448863638 1.5976038707386362 3.290005770596591 1.5981032492897727 Q 3.3018243963068183 1.5986026278409091 3.3104802911931817 1.598935546875 Q 3.3191361860795454 1.5992684659090908 3.3256281072443183 1.5996013849431816 Q 3.332120028409091 1.5999343039772727 3.3371138139204546 1.6002672230113637 Q 3.3421075994318183 1.6006001420454545 3.347267844460227 1.6007666015625 Q 3.3524280894886362 1.6009330610795454 3.3590864701704546 1.6009330610795454 L 3.374733664772727 1.6009330610795454 M 3.5749844637784087 1.9668110795454545 L 3.575650301846591 1.825986328125 Q 3.575650301846591 1.7061354758522727 3.5679931640625 1.6229057173295454 Q 3.566994406960227 1.6122523082386362 3.5733198686079546 1.6070920632102272 Q 3.5796453302556817 1.6019318181818183 3.5878018465909087 1.6019318181818183 Q 3.5959583629261362 1.6019318181818183 3.6026167436079546 1.6070920632102272 Q 3.6092751242897725 1.6122523082386362 3.608609286221591 1.6297305575284091 Q 3.6079434481534087 1.6472088068181818 3.6071111505681817 1.6740087890625 Q 3.6062788529829546 1.700808771306818 3.6056130149147725 1.730771484375 Q 3.6042813387784087 1.7906969105113637 3.6042813387784087 1.8393030894886362 Q 3.6042813387784087 1.8879092684659091 3.6044477982954546 1.9057204367897727 Q 3.6046142578125 1.9235316051136362 3.604947176846591 1.9401775568181818 Q 3.6066117720170454 2.0287340198863637 3.614934747869318 2.0523712713068183 Q 3.623257723721591 2.0760085227272724 3.634244051846591 2.088659446022727 Q 3.656216708096591 2.113961292613636 3.6908402876420454 2.113961292613636 Q 3.7264626242897725 2.113961292613636 3.7497669566761362 2.0876606889204545 Q 3.7737371271306817 2.060361328125 3.7777321555397725 2.011422230113636 Q 3.7813942649147725 1.9514968039772727 3.7813942649147725 1.9152086292613635 Q 3.7813942649147725 1.8789204545454545 3.781227805397727 1.8524533913352272 Q 3.7810613458806817 1.825986328125 3.7803955078125 1.79302734375 Q 3.7777321555397725 1.697146661931818 3.7750688032670454 1.620908203125 Q 3.774735884232954 1.6102547940340908 3.780728426846591 1.6052610085227272 Q 3.786720969460227 1.6002672230113637 3.794378107244318 1.6002672230113637 Q 3.8020352450284087 1.6002672230113637 3.8083607066761362 1.6052610085227272 Q 3.8146861683238633 1.6102547940340908 3.8143532492897725 1.620908203125 Q 3.8130215731534087 1.6705131392045454 3.8128551136363633 1.7187863991477272 Q 3.812688654119318 1.7670596590909091 3.812355735085227 1.8146670809659091 Q 3.8116898970170454 1.9301899857954545 3.8080277876420454 1.9806272194602272 Q 3.8043656782670454 2.031064453125 3.796875 2.05669921875 Q 3.789384321732954 2.082333984375 3.7754017223011362 2.1023091264204545 Q 3.744107333096591 2.146920276988636 3.6911732066761362 2.146920276988636 Q 3.603615500710227 2.146920276988636 3.581975763494318 2.0500408380681816 Q 3.5749844637784087 2.019745205965909 3.5749844637784087 1.9824582741477272 L 3.5749844637784087 1.9668110795454545 M 4.152432528409091 1.7257776988636362 Q 4.1630859375 1.7663938210227272 4.1630859375 1.8154993785511362 Q 4.1630859375 1.8646049360795454 4.154762961647727 1.9067191938920454 Q 4.146439985795454 1.9488334517045454 4.131458629261363 1.984622247869318 Q 4.1164772727272725 2.0204110440340908 4.095669833096591 2.0492085404829545 Q 4.074862393465909 2.0780060369318183 4.049560546875 2.0983140980113637 Q 3.997292258522727 2.1402618963068183 3.93603515625 2.1402618963068183 Q 3.9263805042613633 2.1402618963068183 3.923550692471591 2.134102894176136 Q 3.920720880681818 2.1279438920454545 3.920720880681818 2.1192879971590908 L 3.920720880681818 2.0906569602272724 Q 3.920720880681818 2.070015980113636 3.9205544211647725 2.0405526455965908 Q 3.920387961647727 2.0110893110795454 3.9202215021306817 1.9749675958806818 Q 3.9200550426136362 1.938845880681818 3.9195556640625 1.9000608132102272 Q 3.9190562855113633 1.8612757457386362 3.918556906960227 1.8218248401988637 Q 3.918057528409091 1.7823739346590908 3.9173916903409087 1.7464186789772727 Q 3.9153941761363633 1.6718448153409091 3.9127308238636362 1.6288982599431816 Q 3.9110662286931817 1.606259765625 3.932705965909091 1.6035964133522727 Q 3.964666193181818 1.598935546875 3.985307173295454 1.598935546875 Q 4.119140625 1.598935546875 4.152432528409091 1.7257776988636362 M 3.9540127840909087 2.1089675071022724 Q 3.9916326349431817 2.107635830965909 4.028919566761363 2.0766743607954545 Q 4.0981667258522725 2.019079367897727 4.121471058238636 1.9048881392045454 Q 4.129461115056818 1.865603693181818 4.129461115056818 1.8158322975852272 Q 4.129461115056818 1.7660609019886362 4.1173095703125 1.7292733487215908 Q 4.105158025568182 1.6924857954545454 4.085848721590909 1.6705131392045454 Q 4.049560546875 1.6292311789772727 3.9922984730113633 1.6292311789772727 Q 3.9673295454545454 1.6292311789772727 3.9516823508522725 1.6345578835227272 Q 3.9490189985795454 1.6688485440340908 3.9490189985795454 1.730771484375 Q 3.9490189985795454 1.8050124289772727 3.9493519176136362 1.844296875 Q 3.949684836647727 1.8835813210227272 3.9501842151988633 1.921201171875 Q 3.95068359375 1.9588210227272727 3.9511829723011362 1.9932781427556818 Q 3.9516823508522725 2.0277352627840908 3.952348188920454 2.0550346235795454 Q 3.953346946022727 2.089325284090909 3.9540127840909087 2.1089675071022724 M 4.2885964133522725 1.7023069069602272 Q 4.288429953835227 1.7204509943181818 4.288429953835227 1.8482919034090908 Q 4.288429953835227 1.9761328125 4.292424982244318 2.1172904829545454 Q 4.292757901278409 2.1279438920454545 4.286265980113636 2.133603515625 Q 4.279774058948863 2.1392631392045454 4.272616299715909 2.1392631392045454 Q 4.265458540482954 2.1392631392045454 4.259965376420454 2.1342693536931816 Q 4.254472212357954 2.1292755681818183 4.255138050426136 2.1119637784090908 Q 4.255803888494318 2.0946519886363637 4.2564697265625 2.0640234375 Q 4.257135564630682 2.033394886363636 4.257801402698863 1.9987713068181818 Q 4.259133078835227 1.9301899857954545 4.259133078835227 1.8707639382102272 Q 4.259133078835227 1.811337890625 4.258966619318182 1.7782124467329545 Q 4.258800159801136 1.7450870028409091 4.258134321732954 1.7171218039772727 Q 4.257135564630682 1.6551988636363637 4.254472212357954 1.6182448508522727 Q 4.253473455255682 1.6075914417613637 4.25830078125 1.6024311967329545 Q 4.263128107244318 1.5972709517045454 4.270785245028409 1.5972709517045454 Q 4.2784423828125 1.5972709517045454 4.285100763494318 1.6024311967329545 Q 4.291759144176136 1.6075914417613637 4.291259765625 1.6199094460227272 Q 4.290760387073863 1.6322274502840908 4.290261008522727 1.6442125355113637 Q 4.289761629971591 1.6561976207386362 4.289262251420454 1.6701802201704545 Q 4.288762872869318 1.6841628196022727 4.2885964133522725 1.7023069069602272 M 4.520640980113636 2.146920276988636 Q 4.451060901988636 2.146920276988636 4.418268377130682 2.075009765625 Q 4.385475852272727 2.0030992542613637 4.385475852272727 1.862607421875 Q 4.385475852272727 1.7517453835227272 4.423095703124999 1.6765056818181818 Q 4.44173916903409 1.6398845880681818 4.468372691761363 1.6180783913352272 Q 4.495006214488636 1.5962721946022727 4.529796253551136 1.5962721946022727 Q 4.564586292613636 1.5962721946022727 4.590553977272727 1.6144162819602272 Q 4.6165216619318175 1.6325603693181816 4.633500532670454 1.6668510298295454 Q 4.666792436079545 1.7341006747159091 4.667458274147727 1.862607421875 Q 4.668124112215908 1.9977725497159091 4.628839666193182 2.0730122514204545 Q 4.590221058238636 2.146920276988636 4.520640980113636 2.146920276988636 M 4.5652521306818175 1.6353901811079545 Q 4.549604936079545 1.6255690696022727 4.530628551136363 1.6255690696022727 Q 4.511652166193182 1.6255690696022727 4.496337890624999 1.6353901811079545 Q 4.4810236150568175 1.6452112926136362 4.468539151278408 1.6625230823863637 Q 4.456054687499999 1.6798348721590908 4.446566495028408 1.7033056640625 Q 4.4370783025568175 1.7267764559659091 4.430419921874999 1.7537428977272727 Q 4.417436079545454 1.8090074573863637 4.417436079545454 1.8641055575284091 Q 4.417436079545454 1.9192036576704545 4.42159756747159 1.9564905894886362 Q 4.425759055397727 1.993777521306818 4.433083274147727 2.020910422585227 Q 4.440407492897727 2.048043323863636 4.450561523437499 2.0661874112215908 Q 4.4607155539772725 2.0843314985795454 4.472367720170454 2.0953178267045454 Q 4.494007457386363 2.114960049715909 4.523970170454545 2.114960049715909 Q 4.612526633522727 2.114960049715909 4.631503018465908 1.9521626420454545 Q 4.63583096590909 1.9148757102272727 4.63583096590909 1.8762571022727272 Q 4.63583096590909 1.8376384943181818 4.633500532670454 1.8086745383522727 Q 4.6311700994318175 1.7797105823863637 4.626009854403408 1.7529106001420454 Q 4.620849609374999 1.7261106178977272 4.6126930930397725 1.7028062855113637 Q 4.604536576704545 1.679501953125 4.5927179509943175 1.662356622869318 Q 4.58089932528409 1.6452112926136362 4.5652521306818175 1.6353901811079545" fill="#595959" fill-rule="nonzero"></path></g></g><defs><clipPath id="SvgjsClipPath134669"><path d=" M 5.09775390625 -1.174046539359709 h 4.6215617537890346 v 4.487356217923963 h -4.6215617537890346 Z"></path></clipPath><clipPath id="SvgjsClipPath134667578b3cbf-64e1-47a0-87a9-c04871a0324d"><path d=" M 5.09775390625 -1.1740465393597095 L 9.719315660039035 -1.1740465393597095 L 9.719315660039035 3.3133096785642544 L 5.09775390625 3.3133096785642544 Z"></path></clipPath></defs></svg>